<svg width="236" height="35" viewBox="0 0 236 35" fill="none" xmlns="http://www.w3.org/2000/svg">
<path d="M28.0348 27.7707C29.1157 24.6133 30.1397 21.9822 31.1068 19.8773C32.0739 17.7724 33.0411 16.1084 34.0082 14.8853C34.9753 13.6338 35.9708 12.7378 36.9948 12.1973C38.0473 11.6569 39.1708 11.3867 40.3655 11.3867C41.5886 11.3867 42.4704 11.6711 43.0108 12.24C43.5797 12.8089 43.8784 13.5911 43.9068 14.5867C43.9353 15.5538 43.7646 16.6347 43.3948 17.8293L39.2135 30.3733C39.0713 30.7716 38.9717 31.1556 38.9148 31.5253C38.8864 31.8667 38.9433 32.1511 39.0855 32.3787C39.2277 32.5778 39.4695 32.6773 39.8108 32.6773C40.2375 32.6773 40.6926 32.4356 41.1762 31.952C41.6597 31.4684 42.1717 30.4871 42.7122 29.008L43.3948 27.088H44.2055L43.1388 30.2027C42.7406 31.3973 42.2286 32.3076 41.6028 32.9333C40.9771 33.5591 40.3086 33.9858 39.5975 34.2133C38.9148 34.4693 38.2464 34.5973 37.5922 34.5973C36.3975 34.5973 35.5015 34.3413 34.9042 33.8293C34.3353 33.3173 34.0366 32.5636 34.0082 31.568C34.0082 30.5724 34.2215 29.4062 34.6482 28.0693L38.5735 16.336C38.7442 15.824 38.8579 15.3404 38.9148 14.8853C39.0002 14.4018 38.9717 14.0178 38.8295 13.7333C38.7157 13.4204 38.4171 13.264 37.9335 13.264C37.1655 13.264 36.3264 13.7333 35.4162 14.672C34.5059 15.6107 33.5673 16.9618 32.6002 18.7253C31.6615 20.4604 30.7228 22.5653 29.7842 25.04C28.8455 27.5147 27.9495 30.3164 27.0962 33.4453L28.0348 27.7707ZM30.7655 1.104C31.7895 1.01866 32.7566 0.904886 33.6668 0.762664C34.6055 0.591998 35.4731 0.364442 36.2695 0.0799983L26.9682 34C26.9682 34 26.7833 34 26.4135 34C26.0722 34 25.6313 34 25.0908 34C24.5788 34 24.0668 34 23.5548 34C23.0428 34 22.6019 34 22.2322 34C21.8908 34 21.7202 34 21.7202 34L30.7655 1.104ZM13.6562 4.60267C13.6562 4.60267 13.8411 4.61689 14.2108 4.64533C14.5806 4.67378 15.0499 4.71644 15.6188 4.77333C16.1877 4.83022 16.7566 4.90133 17.3255 4.98667C17.8944 5.04355 18.3637 5.10044 18.7335 5.15733C19.1033 5.18578 19.2882 5.2 19.2882 5.2L12.9735 29.0507C12.6891 30.1031 12.5895 30.9138 12.6748 31.4827C12.7602 32.0516 13.0731 32.464 13.6135 32.72C14.1539 32.9476 15.0073 33.0898 16.1735 33.1467L16.0028 34C15.1495 33.9431 14.0544 33.9147 12.7175 33.9147C11.4091 33.8862 10.0437 33.872 8.6215 33.872C7.22772 33.872 5.89083 33.8862 4.61083 33.9147C3.33083 33.9147 2.30683 33.9431 1.53883 34L1.7095 33.1467C2.90416 33.0898 3.84283 32.9476 4.5255 32.72C5.20816 32.464 5.73439 32.0516 6.10416 31.4827C6.50239 30.8853 6.84372 30.0747 7.12816 29.0507L13.6562 4.60267ZM31.3202 4.60267C30.3246 5.17155 29.2437 5.56978 28.0775 5.79733C26.9397 5.99644 25.6313 6.096 24.1522 6.096C22.9006 6.096 21.6064 6.02489 20.2695 5.88266C18.9611 5.712 17.6384 5.52711 16.3015 5.328C14.9646 5.12889 13.6419 4.95822 12.3335 4.816C11.0535 4.64533 9.83039 4.56 8.66416 4.56C7.7255 4.56 6.80105 4.61689 5.89083 4.73066C5.00905 4.816 4.32639 5.00089 3.84283 5.28533C4.41172 5.51289 4.88105 5.91111 5.25083 6.48C5.62061 7.04889 5.8055 7.70311 5.8055 8.44266C5.8055 9.26755 5.53527 10.0071 4.99483 10.6613C4.48283 11.2871 3.77172 11.6 2.8615 11.6C2.00816 11.6 1.35394 11.3156 0.89883 10.7467C0.443719 10.1778 0.216163 9.49511 0.216163 8.69866C0.216163 8.04444 0.38683 7.36177 0.728163 6.65066C1.09794 5.91111 1.79483 5.28533 2.81883 4.77333C3.47305 4.46044 4.16994 4.23289 4.9095 4.09066C5.6775 3.94844 6.38861 3.86311 7.04283 3.83467C7.69705 3.80622 8.19483 3.792 8.53616 3.792C10.4704 3.792 12.3193 3.92 14.0828 4.176C15.8748 4.40355 17.6242 4.64533 19.3308 4.90133C21.0375 5.12889 22.7584 5.24266 24.4935 5.24266C26.0011 5.24266 27.2242 5.14311 28.1628 4.944C29.1299 4.71644 30.1113 4.34667 31.1068 3.83467L31.3202 4.60267ZM50.6735 24.6133C52.0104 24.1013 53.2335 23.5751 54.3428 23.0347C55.4806 22.4658 56.4335 21.8684 57.2015 21.2427C58.2539 20.304 59.1073 19.2089 59.7615 17.9573C60.4157 16.6773 60.7428 15.2836 60.7428 13.776C60.7428 13.1218 60.6859 12.6951 60.5722 12.496C60.4584 12.2969 60.2877 12.1973 60.0602 12.1973C59.4059 12.1973 58.6948 12.5102 57.9268 13.136C57.1588 13.7618 56.4051 14.6293 55.6655 15.7387C54.9259 16.8196 54.2433 18.0427 53.6175 19.408C53.0202 20.7733 52.5366 22.2098 52.1668 23.7173C51.7971 25.2249 51.6122 26.7182 51.6122 28.1973C51.6122 29.7049 51.8966 30.7716 52.4655 31.3973C53.0628 31.9947 53.8451 32.2933 54.8122 32.2933C55.6371 32.2933 56.6184 32.0231 57.7562 31.4827C58.8939 30.9422 60.0175 29.9609 61.1268 28.5387L61.8095 28.88C61.2406 29.8187 60.4868 30.7289 59.5482 31.6107C58.6095 32.4924 57.5286 33.2178 56.3055 33.7867C55.1108 34.3271 53.7882 34.5973 52.3375 34.5973C51.1428 34.5973 50.0619 34.3698 49.0948 33.9147C48.1277 33.4596 47.3739 32.7911 46.8335 31.9093C46.2931 30.9991 46.0228 29.8898 46.0228 28.5813C46.0228 27.1876 46.2646 25.7084 46.7482 24.144C47.2317 22.5511 47.9144 21.0009 48.7962 19.4933C49.7064 17.9858 50.7731 16.6204 51.9962 15.3973C53.2477 14.1742 54.6273 13.2071 56.1348 12.496C57.6424 11.7564 59.2637 11.3867 60.9988 11.3867C62.1366 11.3867 63.0895 11.6569 63.8575 12.1973C64.6255 12.7093 65.0095 13.5058 65.0095 14.5867C65.0095 15.696 64.6966 16.7342 64.0708 17.7013C63.4451 18.6684 62.5917 19.5502 61.5108 20.3467C60.4584 21.1431 59.2922 21.8542 58.0122 22.48C56.7606 23.1058 55.4948 23.6462 54.2148 24.1013C52.9348 24.5564 51.7402 24.9262 50.6308 25.2107L50.6735 24.6133ZM107.471 3.92H110.372C111.595 3.92 112.747 3.90578 113.828 3.87733C114.937 3.84889 115.905 3.82044 116.73 3.792L116.516 4.64533C115.549 4.67378 114.795 4.78755 114.255 4.98667C113.714 5.15733 113.288 5.49866 112.975 6.01067C112.69 6.49422 112.406 7.26222 112.121 8.31466L106.489 29.4773C106.233 30.5013 106.12 31.2693 106.148 31.7813C106.205 32.2933 106.461 32.6347 106.916 32.8053C107.371 32.976 108.068 33.0898 109.007 33.1467L108.836 34C108.04 33.9431 107.087 33.9147 105.977 33.9147C104.897 33.8862 103.745 33.872 102.521 33.872C101.241 33.872 100.033 33.8862 98.8948 33.9147C97.7571 33.9147 96.8326 33.9431 96.1215 34L96.2922 33.1467C97.2877 33.0898 98.0415 32.976 98.5535 32.8053C99.0939 32.6347 99.5206 32.2933 99.8335 31.7813C100.146 31.2693 100.431 30.5013 100.687 29.4773L106.873 6.48L89.1668 34.2133H88.2282L84.9855 7.41866L79.3535 28.7093C79.1259 29.6196 79.0264 30.4018 79.0548 31.056C79.0833 31.7102 79.3535 32.208 79.8655 32.5493C80.4059 32.8907 81.2735 33.0898 82.4682 33.1467L82.2548 34C81.9419 33.9716 81.5153 33.9573 80.9748 33.9573C80.4344 33.9289 79.8655 33.9147 79.2682 33.9147C78.6993 33.8862 78.1588 33.872 77.6468 33.872C76.9357 33.872 76.2104 33.8862 75.4708 33.9147C74.7313 33.9147 74.1197 33.9431 73.6362 34L73.8068 33.1467C74.8024 33.0898 75.5846 32.8907 76.1535 32.5493C76.7224 32.208 77.1775 31.7102 77.5188 31.056C77.8886 30.4018 78.1873 29.6196 78.4148 28.7093L83.8335 8.31466C84.1179 7.26222 84.2317 6.49422 84.1748 6.01067C84.1179 5.49866 83.8619 5.15733 83.4068 4.98667C82.9802 4.78755 82.2833 4.67378 81.3162 4.64533L81.5295 3.792C82.1268 3.82044 82.8806 3.84889 83.7908 3.87733C84.7295 3.90578 85.6966 3.92 86.6922 3.92C87.3748 3.92 88.0575 3.90578 88.7402 3.87733C89.4228 3.84889 90.0202 3.82044 90.5322 3.792L92.9215 26.7467L107.471 3.92ZM117.557 24.6133C118.894 24.1013 120.117 23.5751 121.226 23.0347C122.364 22.4658 123.317 21.8684 124.085 21.2427C125.137 20.304 125.991 19.2089 126.645 17.9573C127.299 16.6773 127.626 15.2836 127.626 13.776C127.626 13.1218 127.569 12.6951 127.456 12.496C127.342 12.2969 127.171 12.1973 126.944 12.1973C126.289 12.1973 125.578 12.5102 124.81 13.136C124.042 13.7618 123.288 14.6293 122.549 15.7387C121.809 16.8196 121.127 18.0427 120.501 19.408C119.904 20.7733 119.42 22.2098 119.05 23.7173C118.68 25.2249 118.496 26.7182 118.496 28.1973C118.496 29.7049 118.78 30.7716 119.349 31.3973C119.946 31.9947 120.728 32.2933 121.696 32.2933C122.52 32.2933 123.502 32.0231 124.64 31.4827C125.777 30.9422 126.901 29.9609 128.01 28.5387L128.693 28.88C128.124 29.8187 127.37 30.7289 126.432 31.6107C125.493 32.4924 124.412 33.2178 123.189 33.7867C121.994 34.3271 120.672 34.5973 119.221 34.5973C118.026 34.5973 116.945 34.3698 115.978 33.9147C115.011 33.4596 114.257 32.7911 113.717 31.9093C113.176 30.9991 112.906 29.8898 112.906 28.5813C112.906 27.1876 113.148 25.7084 113.632 24.144C114.115 22.5511 114.798 21.0009 115.68 19.4933C116.59 17.9858 117.656 16.6204 118.88 15.3973C120.131 14.1742 121.511 13.2071 123.018 12.496C124.526 11.7564 126.147 11.3867 127.882 11.3867C129.02 11.3867 129.973 11.6569 130.741 12.1973C131.509 12.7093 131.893 13.5058 131.893 14.5867C131.893 15.696 131.58 16.7342 130.954 17.7013C130.328 18.6684 129.475 19.5502 128.394 20.3467C127.342 21.1431 126.176 21.8542 124.896 22.48C123.644 23.1058 122.378 23.6462 121.098 24.1013C119.818 24.5564 118.624 24.9262 117.514 25.2107L117.557 24.6133ZM138.578 32.6347C139.09 32.6347 139.673 32.336 140.327 31.7387C140.981 31.1129 141.65 30.2453 142.332 29.136C143.015 28.0267 143.669 26.704 144.295 25.168C144.921 23.632 145.461 21.9538 145.916 20.1333L145.02 24.7413C144.196 27.1591 143.314 29.0933 142.375 30.544C141.465 31.9947 140.498 33.0329 139.474 33.6587C138.478 34.2844 137.44 34.5973 136.359 34.5973C134.823 34.5973 133.685 34.128 132.946 33.1893C132.206 32.2222 131.836 30.9422 131.836 29.3493C131.836 27.8702 132.078 26.32 132.562 24.6987C133.045 23.0489 133.714 21.4418 134.567 19.8773C135.449 18.2844 136.444 16.8622 137.554 15.6107C138.663 14.3307 139.844 13.3067 141.095 12.5387C142.347 11.7707 143.598 11.3867 144.85 11.3867C145.817 11.3867 146.556 11.7991 147.068 12.624C147.58 13.4204 147.708 14.6436 147.452 16.2933L146.983 16.5493C147.182 15.3547 147.125 14.416 146.812 13.7333C146.528 13.0507 146.044 12.7093 145.362 12.7093C144.708 12.7093 144.011 13.0507 143.271 13.7333C142.56 14.416 141.849 15.3404 141.138 16.5067C140.427 17.6729 139.772 18.9956 139.175 20.4747C138.606 21.9538 138.151 23.4898 137.81 25.0827C137.468 26.6756 137.298 28.2258 137.298 29.7333C137.298 30.7858 137.397 31.5396 137.596 31.9947C137.824 32.4213 138.151 32.6347 138.578 32.6347ZM148.178 11.984C149.202 11.9556 150.155 11.8987 151.036 11.8133C151.947 11.728 152.814 11.5858 153.639 11.3867L148.135 30.3307C148.021 30.672 147.936 31.0276 147.879 31.3973C147.851 31.7387 147.879 32.0373 147.964 32.2933C148.078 32.5209 148.32 32.6347 148.69 32.6347C149.145 32.6347 149.614 32.3929 150.098 31.9093C150.581 31.4258 151.079 30.4444 151.591 28.9653L152.231 27.0453H153.042L151.975 30.16C151.577 31.3262 151.079 32.2364 150.482 32.8907C149.884 33.5164 149.244 33.9573 148.562 34.2133C147.908 34.4693 147.253 34.5973 146.599 34.5973C145.234 34.5973 144.267 34.1707 143.698 33.3173C143.328 32.6916 143.186 31.9236 143.271 31.0133C143.356 30.1031 143.541 29.1218 143.826 28.0693L148.178 11.984ZM160.146 30.3733C159.918 31.1413 159.861 31.7244 159.975 32.1227C160.117 32.4924 160.402 32.6773 160.828 32.6773C161.227 32.6773 161.653 32.4356 162.108 31.952C162.592 31.44 163.104 30.4587 163.644 29.008L164.327 27.088H165.138L164.071 30.2027C163.673 31.3404 163.175 32.2364 162.578 32.8907C161.98 33.5164 161.34 33.9573 160.658 34.2133C159.975 34.4693 159.278 34.5973 158.567 34.5973C157.657 34.5973 156.932 34.4267 156.391 34.0853C155.851 33.744 155.481 33.2747 155.282 32.6773C155.083 32.08 155.012 31.3973 155.068 30.6293C155.125 29.8329 155.296 28.9796 155.58 28.0693L162.364 5.54133C162.649 4.57422 162.62 3.86311 162.279 3.408C161.938 2.95289 161.07 2.72533 159.676 2.72533L159.975 1.82933C161.824 1.80089 163.474 1.64444 164.924 1.36C166.375 1.04711 167.769 0.620443 169.106 0.0799983L160.146 30.3733ZM207.456 13.7333C207.456 15.696 207.157 17.6444 206.56 19.5787C205.991 21.5129 205.138 23.3476 204 25.0827C202.862 26.8178 201.454 28.3538 199.776 29.6907C198.098 31.0276 196.163 32.08 193.973 32.848C191.811 33.616 189.379 34 186.677 34C186.251 34 185.696 33.9858 185.013 33.9573C184.331 33.9289 183.591 33.9147 182.795 33.9147C182.027 33.8862 181.23 33.872 180.405 33.872C179.751 33.872 179.04 33.8862 178.272 33.9147C177.504 33.9147 176.779 33.9289 176.096 33.9573C175.442 33.9573 174.887 33.9716 174.432 34L174.56 33.1467C175.47 33.0898 176.181 32.976 176.693 32.8053C177.234 32.6347 177.66 32.2933 177.973 31.7813C178.286 31.2693 178.571 30.5013 178.827 29.4773L184.416 8.31466C184.643 7.46133 184.743 6.77866 184.715 6.26666C184.715 5.72622 184.501 5.328 184.075 5.072C183.676 4.816 182.965 4.67378 181.941 4.64533L182.069 3.792C182.553 3.82044 183.15 3.84889 183.861 3.87733C184.572 3.90578 185.326 3.92 186.123 3.92C186.947 3.92 187.73 3.92 188.469 3.92C189.01 3.89155 189.678 3.87733 190.475 3.87733C191.271 3.84889 192.067 3.83467 192.864 3.83467C193.66 3.80622 194.329 3.792 194.869 3.792C198.965 3.792 202.08 4.63111 204.213 6.30933C206.375 7.98755 207.456 10.4622 207.456 13.7333ZM186.507 33.232C188.469 33.232 190.233 32.848 191.797 32.08C193.39 31.312 194.784 30.2453 195.979 28.88C197.202 27.5147 198.211 25.9502 199.008 24.1867C199.833 22.4231 200.444 20.5458 200.843 18.5547C201.269 16.5351 201.483 14.5156 201.483 12.496C201.483 9.87911 200.885 7.90222 199.691 6.56533C198.496 5.22844 196.547 4.56 193.845 4.56C193.077 4.56 192.48 4.65955 192.053 4.85866C191.627 5.02933 191.285 5.38489 191.029 5.92533C190.773 6.43733 190.517 7.20533 190.261 8.22933L184.672 29.5627C184.416 30.4444 184.259 31.1556 184.203 31.696C184.174 32.2364 184.331 32.6347 184.672 32.8907C185.013 33.1182 185.625 33.232 186.507 33.232ZM226.164 3.83467C229.293 3.83467 231.569 4.34667 232.991 5.37067C234.413 6.36622 235.124 7.71733 235.124 9.424C235.124 10.9031 234.655 12.24 233.716 13.4347C232.806 14.6293 231.555 15.6391 229.962 16.464C228.369 17.2604 226.563 17.8151 224.543 18.128C227.558 18.3556 229.763 19.0951 231.156 20.3467C232.579 21.5982 233.29 23.0916 233.29 24.8267C233.29 26.3627 232.92 27.6996 232.18 28.8373C231.469 29.9751 230.488 30.928 229.236 31.696C228.013 32.464 226.577 33.0471 224.927 33.4453C223.277 33.8151 221.528 34 219.679 34C218.712 34 217.645 33.9858 216.479 33.9573C215.341 33.9004 213.933 33.872 212.255 33.872C211.544 33.872 210.804 33.8862 210.036 33.9147C209.268 33.9147 208.543 33.9289 207.86 33.9573C207.178 33.9573 206.595 33.9716 206.111 34L206.282 33.1467C207.249 33.0898 208.003 32.976 208.543 32.8053C209.084 32.6347 209.51 32.2933 209.823 31.7813C210.136 31.2693 210.42 30.5013 210.676 29.4773L216.308 8.31466C216.508 7.46133 216.621 6.77866 216.65 6.26666C216.678 5.72622 216.479 5.328 216.052 5.072C215.654 4.78755 214.9 4.64533 213.791 4.64533L214.004 3.792C214.488 3.82044 215.057 3.84889 215.711 3.87733C216.394 3.87733 217.119 3.89155 217.887 3.92C218.655 3.92 219.366 3.92 220.02 3.92C221.244 3.92 222.324 3.90578 223.263 3.87733C224.23 3.84889 225.197 3.83467 226.164 3.83467ZM218.186 18.6827L218.356 17.9573H221.514C223.135 17.9573 224.515 17.5449 225.652 16.72C226.819 15.8667 227.7 14.7573 228.298 13.392C228.924 12.0267 229.236 10.5902 229.236 9.08266C229.236 7.66044 228.952 6.56533 228.383 5.79733C227.843 5.02933 226.89 4.64533 225.524 4.64533C224.529 4.64533 223.818 4.84444 223.391 5.24266C222.964 5.61244 222.595 6.42311 222.282 7.67466L216.522 29.4773C216.351 30.1884 216.237 30.8142 216.18 31.3547C216.152 31.8951 216.294 32.3076 216.607 32.592C216.92 32.8764 217.503 33.0187 218.356 33.0187C220.376 33.0187 222.026 32.6347 223.306 31.8667C224.586 31.0987 225.539 30.0462 226.164 28.7093C226.79 27.344 227.103 25.808 227.103 24.1013C227.103 23.0489 226.918 22.1244 226.548 21.328C226.207 20.5031 225.652 19.8631 224.884 19.408C224.116 18.9244 223.092 18.6827 221.812 18.6827H218.186Z" fill="#474747"/>
</svg>
