<svg width="481" height="54" viewBox="0 0 481 54" fill="none" xmlns="http://www.w3.org/2000/svg">
<path d="M18.9 3.79C22.4933 3.79 25.6467 4.57833 28.36 6.155C31.11 7.73166 33.2367 10.005 34.74 12.975C36.2433 15.9083 36.995 19.4833 36.995 23.7C36.995 27.8067 36.225 31.4 34.685 34.48C33.145 37.56 31 39.9617 28.25 41.685C25.5 43.4083 22.365 44.27 18.845 44.27C15.215 44.27 12.0433 43.4817 9.33 41.905C6.61667 40.3283 4.50833 38.055 3.005 35.085C1.50167 32.115 0.75 28.54 0.75 24.36C0.75 20.2533 1.52 16.66 3.06 13.58C4.63667 10.5 6.78167 8.09833 9.495 6.375C12.2083 4.65166 15.3433 3.79 18.9 3.79ZM18.68 4.78C16.4067 4.78 14.4267 5.605 12.74 7.255C11.0533 8.905 9.75167 11.1783 8.835 14.075C7.91833 16.9717 7.46 20.3267 7.46 24.14C7.46 28.0267 7.97333 31.4183 9 34.315C10.0267 37.175 11.42 39.3933 13.18 40.97C14.94 42.51 16.9017 43.28 19.065 43.28C21.3383 43.28 23.3 42.455 24.95 40.805C26.6367 39.155 27.9383 36.8817 28.855 33.985C29.8083 31.0517 30.285 27.6967 30.285 23.92C30.285 19.9967 29.7533 16.605 28.69 13.745C27.6633 10.885 26.27 8.685 24.51 7.145C22.7867 5.56833 20.8433 4.78 18.68 4.78ZM66.9597 14.515V37.56C66.9597 39.21 67.2347 40.4383 67.7847 41.245C68.3714 42.015 69.4164 42.4 70.9197 42.4V43.555C69.783 43.445 68.6464 43.39 67.5097 43.39C66.2997 43.39 65.1447 43.445 64.0447 43.555C62.9447 43.665 61.9364 43.8667 61.0197 44.16V38.165C60.103 40.365 58.8197 41.9417 57.1697 42.895C55.5564 43.8117 53.8514 44.27 52.0547 44.27C50.698 44.27 49.543 44.0683 48.5897 43.665C47.6364 43.2983 46.848 42.8033 46.2247 42.18C45.5647 41.4467 45.1064 40.5117 44.8497 39.375C44.593 38.2017 44.4647 36.735 44.4647 34.975V21.115C44.4647 19.465 44.1897 18.255 43.6397 17.485C43.0897 16.6783 42.0447 16.275 40.5047 16.275V15.12C41.678 15.23 42.8147 15.285 43.9147 15.285C45.1247 15.285 46.2797 15.23 47.3797 15.12C48.4797 14.9733 49.488 14.7717 50.4047 14.515V36.515C50.4047 37.5783 50.478 38.55 50.6247 39.43C50.7714 40.31 51.1197 41.0067 51.6697 41.52C52.2197 42.0333 53.0997 42.29 54.3097 42.29C55.593 42.29 56.7297 41.905 57.7197 41.135C58.7464 40.365 59.553 39.32 60.1397 38C60.7264 36.68 61.0197 35.195 61.0197 33.545V21.115C61.0197 19.465 60.7447 18.255 60.1947 17.485C59.6447 16.6783 58.5997 16.275 57.0597 16.275V15.12C58.233 15.23 59.3697 15.285 60.4697 15.285C61.6797 15.285 62.8347 15.23 63.9347 15.12C65.0347 14.9733 66.043 14.7717 66.9597 14.515ZM91.2624 14.35C92.3257 14.35 93.2241 14.57 93.9574 15.01C94.7274 15.45 95.2957 16.0183 95.6624 16.715C96.0657 17.375 96.2674 18.1267 96.2674 18.97C96.2674 20.0333 95.9374 20.95 95.2774 21.72C94.6541 22.4533 93.8107 22.82 92.7474 22.82C91.8307 22.82 91.0424 22.545 90.3824 21.995C89.7591 21.445 89.4474 20.6933 89.4474 19.74C89.4474 18.9333 89.6491 18.255 90.0524 17.705C90.4924 17.1183 90.9874 16.66 91.5374 16.33C91.1707 16.0367 90.7307 15.9083 90.2174 15.945C89.2274 15.9817 88.3107 16.3117 87.4674 16.935C86.624 17.5217 85.909 18.2917 85.3224 19.245C84.7357 20.1617 84.2774 21.1517 83.9474 22.215C83.6174 23.2783 83.4524 24.2683 83.4524 25.185V37.835C83.4524 39.6317 83.9474 40.8417 84.9374 41.465C85.9274 42.0517 87.3024 42.345 89.0624 42.345V43.5C88.2191 43.4633 87.0091 43.4267 85.4324 43.39C83.8924 43.3167 82.2607 43.28 80.5374 43.28C79.2174 43.28 77.8974 43.3167 76.5774 43.39C75.2574 43.4267 74.249 43.4633 73.5524 43.5V42.345C74.9824 42.345 75.9907 42.07 76.5774 41.52C77.2007 40.97 77.5124 39.925 77.5124 38.385V21.115C77.5124 19.465 77.2374 18.255 76.6874 17.485C76.1374 16.6783 75.0924 16.275 73.5524 16.275V15.12C74.7257 15.23 75.8624 15.285 76.9624 15.285C78.209 15.285 79.364 15.23 80.4274 15.12C81.5274 14.9733 82.5357 14.7717 83.4524 14.515V20.84C83.8924 19.7767 84.4791 18.75 85.2124 17.76C85.9457 16.77 86.8257 15.9633 87.8524 15.34C88.8791 14.68 90.0157 14.35 91.2624 14.35ZM111.327 4.56C112.17 4.59667 113.252 4.63333 114.572 4.67C115.928 4.70666 117.267 4.725 118.587 4.725C120.347 4.725 122.015 4.70666 123.592 4.67C125.205 4.63333 126.342 4.615 127.002 4.615C131.108 4.615 134.17 5.42167 136.187 7.035C138.24 8.64833 139.267 10.72 139.267 13.25C139.267 14.5333 138.955 15.8167 138.332 17.1C137.745 18.3467 136.773 19.4833 135.417 20.51C134.06 21.5 132.263 22.2883 130.027 22.875V22.985C133.107 23.315 135.527 23.975 137.287 24.965C139.047 25.955 140.293 27.1467 141.027 28.54C141.76 29.8967 142.127 31.3267 142.127 32.83C142.127 34.9933 141.577 36.8817 140.477 38.495C139.377 40.0717 137.782 41.3 135.692 42.18C133.638 43.06 131.163 43.5 128.267 43.5C127.46 43.5 126.232 43.4817 124.582 43.445C122.968 43.3717 121.007 43.335 118.697 43.335C117.303 43.335 115.928 43.3533 114.572 43.39C113.252 43.39 112.17 43.4267 111.327 43.5V42.4C112.573 42.3267 113.508 42.18 114.132 41.96C114.755 41.74 115.158 41.3 115.342 40.64C115.562 39.98 115.672 38.99 115.672 37.67V10.39C115.672 9.03333 115.562 8.04333 115.342 7.42C115.158 6.76 114.737 6.32 114.077 6.1C113.453 5.84333 112.537 5.69666 111.327 5.66V4.56ZM125.847 5.66C124.27 5.66 123.225 5.97167 122.712 6.595C122.235 7.21833 121.997 8.48333 121.997 10.39V37.67C121.997 38.9533 122.107 39.925 122.327 40.585C122.547 41.245 122.932 41.685 123.482 41.905C124.068 42.125 124.912 42.235 126.012 42.235C129.312 42.235 131.695 41.41 133.162 39.76C134.665 38.0733 135.417 35.69 135.417 32.61C135.417 29.7867 134.665 27.605 133.162 26.065C131.695 24.525 129.257 23.755 125.847 23.755H120.512C120.512 23.755 120.512 23.6083 120.512 23.315C120.512 22.985 120.512 22.82 120.512 22.82H125.242C127.258 22.82 128.817 22.4167 129.917 21.61C131.017 20.7667 131.768 19.6667 132.172 18.31C132.575 16.9167 132.777 15.4317 132.777 13.855C132.777 11.1417 132.245 9.10666 131.182 7.75C130.118 6.35667 128.34 5.66 125.847 5.66ZM154.934 0.379998V38.385C154.934 39.925 155.227 40.97 155.814 41.52C156.437 42.07 157.464 42.345 158.894 42.345V43.5C158.271 43.4633 157.299 43.4267 155.979 43.39C154.659 43.3167 153.339 43.28 152.019 43.28C150.699 43.28 149.361 43.3167 148.004 43.39C146.684 43.4267 145.694 43.4633 145.034 43.5V42.345C146.464 42.345 147.472 42.07 148.059 41.52C148.682 40.97 148.994 39.925 148.994 38.385V6.98C148.994 5.33 148.719 4.12 148.169 3.35C147.619 2.54333 146.574 2.14 145.034 2.14V0.984997C146.207 1.095 147.344 1.15 148.444 1.15C149.654 1.15 150.809 1.095 151.909 0.984997C153.009 0.838332 154.017 0.636666 154.934 0.379998ZM174.744 14.35C177.2 14.35 179.382 14.8633 181.289 15.89C183.195 16.9167 184.717 18.53 185.854 20.73C186.99 22.93 187.559 25.8083 187.559 29.365C187.559 32.9217 186.99 35.8 185.854 38C184.717 40.1633 183.195 41.7583 181.289 42.785C179.382 43.775 177.2 44.27 174.744 44.27C172.324 44.27 170.142 43.775 168.199 42.785C166.255 41.7583 164.715 40.1633 163.579 38C162.479 35.8 161.929 32.9217 161.929 29.365C161.929 25.8083 162.479 22.93 163.579 20.73C164.715 18.53 166.255 16.9167 168.199 15.89C170.142 14.8633 172.324 14.35 174.744 14.35ZM174.744 15.45C172.837 15.45 171.279 16.55 170.069 18.75C168.859 20.9133 168.254 24.4517 168.254 29.365C168.254 34.2783 168.859 37.8167 170.069 39.98C171.279 42.1067 172.837 43.17 174.744 43.17C176.614 43.17 178.154 42.1067 179.364 39.98C180.61 37.8167 181.234 34.2783 181.234 29.365C181.234 24.4517 180.61 20.9133 179.364 18.75C178.154 16.55 176.614 15.45 174.744 15.45ZM201.788 53.84C199.735 53.84 197.828 53.6383 196.068 53.235C194.345 52.8317 192.951 52.2083 191.888 51.365C190.861 50.5583 190.348 49.5133 190.348 48.23C190.348 47.02 190.861 45.9567 191.888 45.04C192.915 44.1233 194.363 43.4267 196.233 42.95L196.618 43.83C195.848 44.16 195.243 44.6917 194.803 45.425C194.4 46.1583 194.198 46.965 194.198 47.845C194.198 49.4583 194.95 50.705 196.453 51.585C197.956 52.465 199.936 52.905 202.393 52.905C204.043 52.905 205.601 52.685 207.068 52.245C208.571 51.8417 209.781 51.1633 210.698 50.21C211.651 49.2567 212.128 48.0283 212.128 46.525C212.128 45.3517 211.706 44.3617 210.863 43.555C210.02 42.785 208.351 42.4 205.858 42.4H202.008C200.725 42.4 199.533 42.29 198.433 42.07C197.333 41.85 196.435 41.4283 195.738 40.805C195.078 40.145 194.748 39.2283 194.748 38.055C194.748 36.735 195.298 35.4883 196.398 34.315C197.498 33.1417 199.35 31.9867 201.953 30.85L202.613 31.345C201.55 31.9317 200.596 32.5367 199.753 33.16C198.946 33.7467 198.543 34.48 198.543 35.36C198.543 36.5333 199.386 37.12 201.073 37.12H207.618C209.341 37.12 210.9 37.3583 212.293 37.835C213.686 38.275 214.805 38.99 215.648 39.98C216.491 40.97 216.913 42.2717 216.913 43.885C216.913 45.6083 216.345 47.2217 215.208 48.725C214.108 50.265 212.44 51.4933 210.203 52.41C207.966 53.3633 205.161 53.84 201.788 53.84ZM202.118 31.785C200.248 31.785 198.543 31.4917 197.003 30.905C195.463 30.2817 194.253 29.3283 193.373 28.045C192.493 26.7617 192.053 25.1117 192.053 23.095C192.053 21.0783 192.493 19.4283 193.373 18.145C194.253 16.825 195.463 15.8717 197.003 15.285C198.543 14.6617 200.248 14.35 202.118 14.35C204.061 14.35 205.785 14.6617 207.288 15.285C208.791 15.8717 209.983 16.825 210.863 18.145C211.743 19.4283 212.183 21.0783 212.183 23.095C212.183 25.1117 211.743 26.7617 210.863 28.045C209.983 29.3283 208.791 30.2817 207.288 30.905C205.785 31.4917 204.061 31.785 202.118 31.785ZM202.118 30.795C203.401 30.795 204.391 30.245 205.088 29.145C205.785 28.045 206.133 26.0283 206.133 23.095C206.133 20.1617 205.785 18.145 205.088 17.045C204.391 15.9083 203.401 15.34 202.118 15.34C200.908 15.34 199.936 15.9083 199.203 17.045C198.47 18.145 198.103 20.1617 198.103 23.095C198.103 26.0283 198.47 28.045 199.203 29.145C199.936 30.245 200.908 30.795 202.118 30.795ZM210.258 18.97L209.268 18.585C209.781 17.3017 210.661 16.1833 211.908 15.23C213.155 14.2767 214.456 13.8 215.813 13.8C216.84 13.8 217.646 14.0933 218.233 14.68C218.856 15.23 219.168 16.0183 219.168 17.045C219.168 18.1817 218.856 18.9883 218.233 19.465C217.646 19.9417 217.023 20.18 216.363 20.18C215.776 20.18 215.226 19.9783 214.713 19.575C214.236 19.1717 213.961 18.5483 213.888 17.705C213.815 16.825 214.09 15.7067 214.713 14.35L215.318 14.57C213.851 15.1567 212.77 15.78 212.073 16.44C211.413 17.0633 210.808 17.9067 210.258 18.97ZM250.203 4.725C251.596 4.725 252.733 4.87166 253.613 5.165C254.53 5.42166 255.3 5.77 255.923 6.21C256.436 6.54 256.858 6.925 257.188 7.365C257.555 7.805 257.848 8.26333 258.068 8.74C258.288 9.21667 258.398 9.71167 258.398 10.225C258.398 11.215 258.031 12.0033 257.298 12.59C256.601 13.14 255.813 13.415 254.933 13.415C254.053 13.415 253.283 13.1583 252.623 12.645C252 12.1317 251.688 11.3983 251.688 10.445C251.688 9.60167 251.981 8.86833 252.568 8.245C253.155 7.585 253.888 7.2 254.768 7.09C254.585 6.68666 254.126 6.33833 253.393 6.045C252.696 5.75167 251.835 5.605 250.808 5.605C248.901 5.605 247.325 6.17333 246.078 7.31C244.868 8.44666 244.263 10.1333 244.263 12.37C244.263 13.3233 244.428 14.3133 244.758 15.34C245.125 16.3667 245.821 17.3933 246.848 18.42C247.471 18.31 248.076 18.2183 248.663 18.145C249.286 18.0717 249.781 18.035 250.148 18.035C250.808 18.035 251.321 18.1633 251.688 18.42C252.091 18.64 252.293 18.97 252.293 19.41C252.293 19.74 252.146 19.9967 251.853 20.18C251.56 20.3633 251.193 20.455 250.753 20.455C250.056 20.455 249.341 20.3083 248.608 20.015C247.875 19.685 247.306 19.41 246.903 19.19C244.886 19.8867 243.255 20.95 242.008 22.38C240.798 23.7733 240.193 25.6983 240.193 28.155C240.193 30.6483 240.853 32.7567 242.173 34.48C243.493 36.1667 245.29 37.45 247.563 38.33C249.836 39.21 252.44 39.65 255.373 39.65C257.28 39.65 259.113 39.43 260.873 38.99C262.633 38.55 264.191 37.9083 265.548 37.065C266.941 36.185 268.041 35.14 268.848 33.93C269.655 32.72 270.058 31.3267 270.058 29.75C270.058 29.09 269.93 28.2467 269.673 27.22C269.416 26.1933 268.866 25.185 268.023 24.195C267.216 23.205 265.951 22.4167 264.228 21.83L264.778 21.28C267.235 22.05 269.013 23.315 270.113 25.075C271.213 26.835 271.763 28.815 271.763 31.015C271.763 33.325 271.048 35.5067 269.618 37.56C268.225 39.5767 266.226 41.2083 263.623 42.455C261.02 43.665 257.885 44.27 254.218 44.27C251.615 44.27 249.176 43.9583 246.903 43.335C244.666 42.7117 242.705 41.8133 241.018 40.64C239.331 39.43 238.011 37.9817 237.058 36.295C236.105 34.6083 235.628 32.7017 235.628 30.575C235.628 28.5583 236.013 26.8533 236.783 25.46C237.59 24.03 238.58 22.8567 239.753 21.94C240.926 20.9867 242.1 20.2717 243.273 19.795C244.446 19.2817 245.4 18.9333 246.133 18.75C244.923 18.2367 243.878 17.6317 242.998 16.935C242.155 16.2017 241.495 15.395 241.018 14.515C240.578 13.5983 240.358 12.6633 240.358 11.71C240.358 10.72 240.596 9.80333 241.073 8.96C241.55 8.11667 242.21 7.38333 243.053 6.76C243.933 6.1 244.96 5.605 246.133 5.275C247.343 4.90833 248.7 4.725 250.203 4.725ZM270.718 3.79C273.101 3.79 275.081 4.45 276.658 5.77C278.235 7.09 279.023 8.94166 279.023 11.325C279.023 12.7917 278.711 14.0567 278.088 15.12C277.501 16.1833 276.658 17.1 275.558 17.87C274.495 18.64 273.248 19.2633 271.818 19.74C271.085 20.07 270.131 20.4367 268.958 20.84C267.785 21.2067 266.538 21.5917 265.218 21.995C263.898 22.3983 262.633 22.7833 261.423 23.15C260.25 23.5167 259.278 23.8467 258.508 24.14C256.675 24.69 255.19 25.35 254.053 26.12C252.916 26.8533 252.348 27.8433 252.348 29.09C252.348 30.0433 252.623 30.85 253.173 31.51C253.76 32.17 254.456 32.665 255.263 32.995C256.106 33.325 256.913 33.49 257.683 33.49C257.976 33.49 258.343 33.4533 258.783 33.38C259.223 33.3067 259.608 33.1967 259.938 33.05C260.305 32.9033 260.525 32.72 260.598 32.5C259.901 32.3533 259.278 32.0417 258.728 31.565C258.215 31.0517 257.958 30.3367 257.958 29.42C257.958 28.4667 258.288 27.715 258.948 27.165C259.645 26.615 260.488 26.34 261.478 26.34C262.505 26.34 263.311 26.6333 263.898 27.22C264.521 27.8067 264.833 28.5767 264.833 29.53C264.833 30.5933 264.485 31.4917 263.788 32.225C263.091 32.9583 262.211 33.5083 261.148 33.875C260.085 34.205 258.985 34.37 257.848 34.37C256.675 34.37 255.52 34.15 254.383 33.71C253.283 33.2333 252.366 32.5183 251.633 31.565C250.936 30.575 250.588 29.2917 250.588 27.715C250.588 26.2117 250.936 24.9283 251.633 23.865C252.33 22.765 253.356 21.8117 254.713 21.005C256.106 20.1983 257.775 19.5383 259.718 19.025C260.708 18.695 261.881 18.3467 263.238 17.98C264.631 17.6133 266.043 17.2283 267.473 16.825C268.903 16.385 270.223 15.9083 271.433 15.395C273.523 14.5883 275.026 13.7633 275.943 12.92C276.86 12.0767 277.318 11.1233 277.318 10.06C277.318 8.99667 277.025 8.08 276.438 7.31C275.851 6.50333 275.063 5.86167 274.073 5.385C273.12 4.90833 272.093 4.67 270.993 4.67C270.59 4.67 270.241 4.70666 269.948 4.78C269.691 4.81667 269.508 4.92667 269.398 5.11C270.021 5.36666 270.498 5.77 270.828 6.32C271.158 6.87 271.323 7.40167 271.323 7.915C271.323 8.83166 270.975 9.565 270.278 10.115C269.581 10.6283 268.756 10.885 267.803 10.885C266.923 10.885 266.135 10.6283 265.438 10.115C264.741 9.60166 264.393 8.85 264.393 7.86C264.393 6.90667 264.705 6.13666 265.328 5.55C265.951 4.92666 266.74 4.48667 267.693 4.23C268.683 3.93666 269.691 3.79 270.718 3.79ZM310.067 4.34L323.487 38.88C324 40.2367 324.587 41.1533 325.247 41.63C325.943 42.1067 326.585 42.3633 327.172 42.4V43.5C326.292 43.4267 325.247 43.39 324.037 43.39C322.863 43.3533 321.672 43.335 320.462 43.335C318.922 43.335 317.492 43.3533 316.172 43.39C314.852 43.39 313.788 43.4267 312.982 43.5V42.4C314.852 42.3267 316.025 42.015 316.502 41.465C317.015 40.8783 316.905 39.65 316.172 37.78L306.272 11.05L307.152 10.06L298.022 33.93C297.362 35.58 296.958 36.955 296.812 38.055C296.702 39.155 296.793 40.0167 297.087 40.64C297.417 41.2633 297.967 41.7033 298.737 41.96C299.507 42.2167 300.46 42.3633 301.597 42.4V43.5C300.497 43.4267 299.378 43.39 298.242 43.39C297.142 43.3533 296.097 43.335 295.107 43.335C294.227 43.335 293.438 43.3533 292.742 43.39C292.082 43.39 291.477 43.4267 290.927 43.5V42.4C291.697 42.2167 292.467 41.7583 293.237 41.025C294.007 40.2917 294.74 39.045 295.437 37.285L308.197 4.34C308.49 4.34 308.802 4.34 309.132 4.34C309.462 4.34 309.773 4.34 310.067 4.34ZM315.842 27.66V28.76H299.452L300.002 27.66H315.842ZM345.96 14.35C347.023 14.35 347.921 14.57 348.655 15.01C349.425 15.45 349.993 16.0183 350.36 16.715C350.763 17.375 350.965 18.1267 350.965 18.97C350.965 20.0333 350.635 20.95 349.975 21.72C349.351 22.4533 348.508 22.82 347.445 22.82C346.528 22.82 345.74 22.545 345.08 21.995C344.456 21.445 344.145 20.6933 344.145 19.74C344.145 18.9333 344.346 18.255 344.75 17.705C345.19 17.1183 345.685 16.66 346.235 16.33C345.868 16.0367 345.428 15.9083 344.915 15.945C343.925 15.9817 343.008 16.3117 342.165 16.935C341.321 17.5217 340.606 18.2917 340.02 19.245C339.433 20.1617 338.975 21.1517 338.645 22.215C338.315 23.2783 338.15 24.2683 338.15 25.185V37.835C338.15 39.6317 338.645 40.8417 339.635 41.465C340.625 42.0517 342 42.345 343.76 42.345V43.5C342.916 43.4633 341.706 43.4267 340.13 43.39C338.59 43.3167 336.958 43.28 335.235 43.28C333.915 43.28 332.595 43.3167 331.275 43.39C329.955 43.4267 328.946 43.4633 328.25 43.5V42.345C329.68 42.345 330.688 42.07 331.275 41.52C331.898 40.97 332.21 39.925 332.21 38.385V21.115C332.21 19.465 331.935 18.255 331.385 17.485C330.835 16.6783 329.79 16.275 328.25 16.275V15.12C329.423 15.23 330.56 15.285 331.66 15.285C332.906 15.285 334.061 15.23 335.125 15.12C336.225 14.9733 337.233 14.7717 338.15 14.515V20.84C338.59 19.7767 339.176 18.75 339.91 17.76C340.643 16.77 341.523 15.9633 342.55 15.34C343.576 14.68 344.713 14.35 345.96 14.35ZM362.743 6.045V15.175H370.333V16.275H362.743V37.89C362.743 39.3933 363.018 40.4567 363.568 41.08C364.118 41.7033 364.906 42.015 365.933 42.015C366.886 42.015 367.729 41.63 368.463 40.86C369.233 40.09 369.893 38.7883 370.443 36.955L371.488 37.34C371.048 39.2833 370.259 40.9333 369.123 42.29C368.023 43.61 366.391 44.27 364.228 44.27C362.981 44.27 361.936 44.105 361.093 43.775C360.249 43.4817 359.516 43.0417 358.893 42.455C358.086 41.6117 357.536 40.6033 357.243 39.43C356.949 38.2567 356.803 36.6983 356.803 34.755V16.275H351.743V15.175H356.803V7.145C357.939 7.10833 359.003 7.01666 359.993 6.87C360.983 6.68667 361.899 6.41167 362.743 6.045ZM379.107 1.26C380.244 1.26 381.197 1.62667 381.967 2.36C382.737 3.05667 383.122 3.93666 383.122 5C383.122 6.06333 382.737 6.96167 381.967 7.695C381.197 8.39167 380.244 8.74 379.107 8.74C377.971 8.74 377.017 8.39167 376.247 7.695C375.477 6.96167 375.092 6.06333 375.092 5C375.092 3.93666 375.477 3.05667 376.247 2.36C377.017 1.62667 377.971 1.26 379.107 1.26ZM382.407 14.515V38.385C382.407 39.925 382.701 40.97 383.287 41.52C383.911 42.07 384.937 42.345 386.367 42.345V43.5C385.744 43.4633 384.772 43.4267 383.452 43.39C382.169 43.3167 380.849 43.28 379.492 43.28C378.209 43.28 376.889 43.3167 375.532 43.39C374.176 43.4267 373.167 43.4633 372.507 43.5V42.345C373.937 42.345 374.946 42.07 375.532 41.52C376.156 40.97 376.467 39.925 376.467 38.385V21.115C376.467 19.465 376.192 18.255 375.642 17.485C375.092 16.6783 374.047 16.275 372.507 16.275V15.12C373.681 15.23 374.817 15.285 375.917 15.285C377.164 15.285 378.319 15.23 379.382 15.12C380.482 14.9733 381.491 14.7717 382.407 14.515ZM402.967 14.35C404.213 14.35 405.405 14.515 406.542 14.845C407.678 15.1383 408.668 15.56 409.512 16.11C410.392 16.66 411.052 17.32 411.492 18.09C411.968 18.86 412.207 19.7033 412.207 20.62C412.207 21.72 411.895 22.5817 411.272 23.205C410.648 23.8283 409.842 24.14 408.852 24.14C407.862 24.14 407.037 23.865 406.377 23.315C405.717 22.765 405.387 21.9767 405.387 20.95C405.387 19.9967 405.662 19.2267 406.212 18.64C406.762 18.0167 407.403 17.6133 408.137 17.43C407.807 16.88 407.22 16.4217 406.377 16.055C405.57 15.6517 404.69 15.45 403.737 15.45C402.747 15.45 401.793 15.7067 400.877 16.22C399.997 16.7333 399.208 17.5217 398.512 18.585C397.815 19.6483 397.247 21.0233 396.807 22.71C396.403 24.3967 396.202 26.4317 396.202 28.815C396.202 31.895 396.55 34.3517 397.247 36.185C397.98 37.9817 398.933 39.265 400.107 40.035C401.28 40.805 402.545 41.19 403.902 41.19C404.782 41.19 405.68 41.025 406.597 40.695C407.55 40.365 408.448 39.815 409.292 39.045C410.172 38.275 410.942 37.23 411.602 35.91L412.647 36.295C412.243 37.505 411.602 38.7333 410.722 39.98C409.878 41.2267 408.76 42.2533 407.367 43.06C405.973 43.8667 404.268 44.27 402.252 44.27C399.942 44.27 397.852 43.7017 395.982 42.565C394.112 41.4283 392.627 39.7783 391.527 37.615C390.427 35.415 389.877 32.7383 389.877 29.585C389.877 26.505 390.427 23.8283 391.527 21.555C392.663 19.245 394.222 17.4667 396.202 16.22C398.182 14.9733 400.437 14.35 402.967 14.35ZM425.476 0.379998V38.385C425.476 39.925 425.769 40.97 426.356 41.52C426.979 42.07 428.006 42.345 429.436 42.345V43.5C428.813 43.4633 427.841 43.4267 426.521 43.39C425.201 43.3167 423.881 43.28 422.561 43.28C421.241 43.28 419.903 43.3167 418.546 43.39C417.226 43.4267 416.236 43.4633 415.576 43.5V42.345C417.006 42.345 418.014 42.07 418.601 41.52C419.224 40.97 419.536 39.925 419.536 38.385V6.98C419.536 5.33 419.261 4.12 418.711 3.35C418.161 2.54333 417.116 2.14 415.576 2.14V0.984997C416.749 1.095 417.886 1.15 418.986 1.15C420.196 1.15 421.351 1.095 422.451 0.984997C423.551 0.838332 424.559 0.636666 425.476 0.379998ZM445.176 14.35C448.402 14.35 450.932 15.3217 452.766 17.265C454.599 19.2083 455.516 22.2883 455.516 26.505H436.541L436.431 25.46H449.686C449.722 23.6633 449.576 22.0133 449.246 20.51C448.916 18.97 448.402 17.7417 447.706 16.825C447.009 15.9083 446.092 15.45 444.956 15.45C443.379 15.45 442.004 16.2933 440.831 17.98C439.694 19.63 438.997 22.2883 438.741 25.955L438.906 26.23C438.869 26.7433 438.832 27.3117 438.796 27.935C438.759 28.5217 438.741 29.1083 438.741 29.695C438.741 32.225 439.126 34.3517 439.896 36.075C440.666 37.7983 441.674 39.1 442.921 39.98C444.167 40.8233 445.432 41.245 446.716 41.245C447.706 41.245 448.659 41.0983 449.576 40.805C450.529 40.475 451.427 39.9433 452.271 39.21C453.114 38.44 453.866 37.395 454.526 36.075L455.626 36.515C455.186 37.7617 454.507 38.99 453.591 40.2C452.674 41.41 451.501 42.4 450.071 43.17C448.641 43.9033 446.972 44.27 445.066 44.27C442.499 44.27 440.262 43.7017 438.356 42.565C436.449 41.3917 434.982 39.7233 433.956 37.56C432.929 35.3967 432.416 32.83 432.416 29.86C432.416 26.5967 432.947 23.81 434.011 21.5C435.074 19.19 436.559 17.43 438.466 16.22C440.409 14.9733 442.646 14.35 445.176 14.35ZM469.534 14.35C471.001 14.35 472.266 14.5883 473.329 15.065C474.429 15.505 475.218 15.9083 475.694 16.275C476.904 17.2283 477.656 16.605 477.949 14.405H479.159C479.086 15.4317 479.031 16.6783 478.994 18.145C478.958 19.575 478.939 21.4817 478.939 23.865H477.729C477.509 22.5083 477.124 21.1883 476.574 19.905C476.061 18.6217 475.291 17.5583 474.264 16.715C473.274 15.8717 471.973 15.45 470.359 15.45C469.149 15.45 468.141 15.7983 467.334 16.495C466.528 17.155 466.124 18.145 466.124 19.465C466.124 20.565 466.454 21.5183 467.114 22.325C467.774 23.1317 468.618 23.8833 469.644 24.58C470.708 25.2767 471.844 26.0283 473.054 26.835C474.411 27.7517 475.621 28.6683 476.684 29.585C477.784 30.465 478.646 31.455 479.269 32.555C479.929 33.655 480.259 34.9383 480.259 36.405C480.259 38.0917 479.801 39.5217 478.884 40.695C478.004 41.8683 476.831 42.7667 475.364 43.39C473.898 43.9767 472.284 44.27 470.524 44.27C469.644 44.27 468.819 44.1783 468.049 43.995C467.279 43.8483 466.564 43.6467 465.904 43.39C465.501 43.17 465.098 42.95 464.694 42.73C464.328 42.4733 463.961 42.235 463.594 42.015C463.228 41.7583 462.898 41.795 462.604 42.125C462.311 42.455 462.091 43.0417 461.944 43.885H460.734C460.808 42.7117 460.863 41.2817 460.899 39.595C460.936 37.9083 460.954 35.6717 460.954 32.885H462.164C462.421 34.9017 462.806 36.68 463.319 38.22C463.833 39.76 464.584 40.97 465.574 41.85C466.601 42.6933 467.994 43.115 469.754 43.115C470.451 43.115 471.148 42.9683 471.844 42.675C472.541 42.345 473.109 41.8317 473.549 41.135C474.026 40.4383 474.264 39.5033 474.264 38.33C474.264 36.7167 473.696 35.3967 472.559 34.37C471.459 33.3067 470.029 32.1883 468.269 31.015C467.023 30.135 465.831 29.2733 464.694 28.43C463.594 27.55 462.696 26.5783 461.999 25.515C461.303 24.415 460.954 23.1133 460.954 21.61C460.954 19.96 461.339 18.6033 462.109 17.54C462.916 16.4767 463.979 15.6883 465.299 15.175C466.619 14.625 468.031 14.35 469.534 14.35Z" fill="#2C2F24"/>
</svg>
