<svg width="180" height="27" viewBox="0 0 180 27" fill="none" xmlns="http://www.w3.org/2000/svg">
<path d="M22.1073 21.2302C22.9349 18.8126 23.719 16.798 24.4595 15.1862C25.2001 13.5745 25.9406 12.3004 26.6811 11.3638C27.4216 10.4055 28.1839 9.71945 28.968 9.30563C29.7739 8.89181 30.6342 8.6849 31.5489 8.6849C32.4855 8.6849 33.1607 8.9027 33.5745 9.3383C34.0101 9.7739 34.2388 10.3729 34.2605 11.1352C34.2823 11.8757 34.1516 12.7033 33.8685 13.6181L30.6668 23.2231C30.5579 23.528 30.4817 23.822 30.4382 24.1051C30.4164 24.3665 30.4599 24.5843 30.5688 24.7585C30.6777 24.911 30.8629 24.9872 31.1242 24.9872C31.4509 24.9872 31.7994 24.8021 32.1697 24.4318C32.5399 24.0616 32.932 23.3102 33.3458 22.1776L33.8685 20.7075H34.4892L33.6725 23.0924C33.3676 24.0071 32.9755 24.7041 32.4964 25.1833C32.0172 25.6624 31.5054 25.9891 30.9609 26.1634C30.4382 26.3594 29.9263 26.4574 29.4254 26.4574C28.5106 26.4574 27.8246 26.2614 27.3672 25.8693C26.9316 25.4773 26.7029 24.9001 26.6811 24.1378C26.6811 23.3755 26.8445 22.4825 27.1712 21.4589L30.1768 12.4746C30.3075 12.0826 30.3946 11.7123 30.4382 11.3638C30.5035 10.9936 30.4817 10.6995 30.3728 10.4818C30.2857 10.2422 30.057 10.1224 29.6867 10.1224C29.0987 10.1224 28.4562 10.4818 27.7592 11.2005C27.0623 11.9192 26.3435 12.9538 25.603 14.3041C24.8843 15.6327 24.1655 17.2444 23.4468 19.1393C22.728 21.0342 22.042 23.1795 21.3886 25.5753L22.1073 21.2302ZM24.1982 0.811431C24.9823 0.74609 25.7228 0.65897 26.4197 0.55007C27.1385 0.41939 27.8028 0.245151 28.4126 0.0273509L21.2906 26C21.2906 26 21.149 26 20.8658 26C20.6045 26 20.2669 26 19.8531 26C19.461 26 19.069 26 18.677 26C18.2849 26 17.9473 26 17.6642 26C17.4028 26 17.2721 26 17.2721 26L24.1982 0.811431ZM11.0975 3.49037C11.0975 3.49037 11.2391 3.50126 11.5222 3.52304C11.8054 3.54482 12.1647 3.57749 12.6003 3.62105C13.0359 3.66461 13.4715 3.71906 13.9071 3.7844C14.3427 3.82796 14.7021 3.87152 14.9852 3.91508C15.2684 3.93686 15.41 3.94775 15.41 3.94775L10.5748 22.2103C10.357 23.0161 10.2808 23.6369 10.3461 24.0725C10.4114 24.5081 10.651 24.8239 11.0648 25.0199C11.4787 25.1941 12.1321 25.303 13.025 25.3466L12.8944 26C12.241 25.9564 11.4024 25.9347 10.3788 25.9347C9.3769 25.9129 8.33146 25.902 7.24246 25.902C6.17524 25.902 5.15158 25.9129 4.17148 25.9347C3.19138 25.9347 2.4073 25.9564 1.81924 26L1.94992 25.3466C2.86468 25.303 3.58342 25.1941 4.10614 25.0199C4.62886 24.8239 5.03179 24.5081 5.31493 24.0725C5.61985 23.6151 5.88121 22.9944 6.09901 22.2103L11.0975 3.49037ZM24.6229 3.49037C23.8606 3.92597 23.033 4.23089 22.14 4.40513C21.2688 4.55759 20.2669 4.63382 19.1343 4.63382C18.176 4.63382 17.185 4.57937 16.1614 4.47047C15.1595 4.33979 14.1467 4.19822 13.1231 4.04576C12.0994 3.8933 11.0866 3.76262 10.0847 3.65372C9.10465 3.52304 8.16811 3.4577 7.27513 3.4577C6.55639 3.4577 5.84854 3.50126 5.15158 3.58838C4.4764 3.65372 3.95368 3.79529 3.58342 4.01309C4.01902 4.18733 4.37839 4.49225 4.66153 4.92785C4.94467 5.36345 5.08624 5.86439 5.08624 6.43067C5.08624 7.06229 4.87933 7.62857 4.46551 8.12951C4.07347 8.60867 3.52897 8.84825 2.83201 8.84825C2.17861 8.84825 1.67767 8.63045 1.32919 8.19485C0.980706 7.75925 0.806466 7.23653 0.806466 6.62669C0.806466 6.12575 0.937146 5.60303 1.19851 5.05853C1.48165 4.49225 2.01526 4.01309 2.79934 3.62105C3.30028 3.38147 3.83389 3.20723 4.40017 3.09833C4.98823 2.98943 5.53273 2.92409 6.03367 2.90231C6.53461 2.88053 6.91576 2.86964 7.17712 2.86964C8.65816 2.86964 10.0739 2.96765 11.4242 3.16367C12.7964 3.33791 14.1358 3.52304 15.4426 3.71906C16.7494 3.8933 18.0671 3.98042 19.3957 3.98042C20.55 3.98042 21.4866 3.90419 22.2053 3.75173C22.9458 3.57749 23.6972 3.29435 24.4595 2.90231L24.6229 3.49037ZM39.3481 18.8126C40.3717 18.4206 41.3083 18.0176 42.1577 17.6038C43.0289 17.1682 43.7585 16.7108 44.3466 16.2317C45.1524 15.5129 45.8058 14.6744 46.3068 13.7161C46.8077 12.736 47.0582 11.6688 47.0582 10.5144C47.0582 10.0135 47.0146 9.68678 46.9275 9.53432C46.8404 9.38186 46.7097 9.30563 46.5355 9.30563C46.0345 9.30563 45.49 9.54521 44.902 10.0244C44.3139 10.5035 43.7368 11.1678 43.1705 12.0172C42.6042 12.8449 42.0815 13.7814 41.6023 14.8269C41.1449 15.8723 40.7747 16.9722 40.4915 18.1265C40.2084 19.2809 40.0668 20.4243 40.0668 21.5569C40.0668 22.7112 40.2846 23.528 40.7202 24.0071C41.1776 24.4645 41.7765 24.6932 42.5171 24.6932C43.1487 24.6932 43.9001 24.4863 44.7713 24.0725C45.6425 23.6587 46.5028 22.9072 47.3522 21.8182L47.8749 22.0796C47.4393 22.7983 46.8622 23.4953 46.1434 24.1705C45.4247 24.8457 44.5971 25.4011 43.6605 25.8366C42.7458 26.2505 41.733 26.4574 40.6222 26.4574C39.7075 26.4574 38.8798 26.2831 38.1393 25.9347C37.3988 25.5862 36.8216 25.0744 36.4078 24.3992C35.994 23.7022 35.7871 22.8528 35.7871 21.8509C35.7871 20.7837 35.9722 19.6511 36.3424 18.4532C36.7127 17.2336 37.2354 16.0465 37.9106 14.8922C38.6076 13.7379 39.4243 12.6924 40.3609 11.7559C41.3192 10.8193 42.3755 10.0788 43.5298 9.53432C44.6842 8.96804 45.9256 8.6849 47.2542 8.6849C48.1254 8.6849 48.855 8.89181 49.4431 9.30563C50.0312 9.69767 50.3252 10.3075 50.3252 11.1352C50.3252 11.9846 50.0856 12.7795 49.6065 13.5201C49.1273 14.2606 48.4739 14.9358 47.6463 15.5456C46.8404 16.1554 45.9474 16.6999 44.9673 17.1791C44.009 17.6583 43.0398 18.0721 42.0597 18.4206C41.0796 18.769 40.1648 19.0522 39.3154 19.27L39.3481 18.8126ZM82.6505 2.96765H84.8721C85.8086 2.96765 86.6907 2.95676 87.5184 2.93498C88.3678 2.9132 89.1083 2.89142 89.7399 2.86964L89.5766 3.52304C88.8361 3.54482 88.2589 3.63194 87.8451 3.7844C87.4312 3.91508 87.1045 4.17644 86.865 4.56848C86.6472 4.93874 86.4294 5.5268 86.2116 6.33266L81.8991 22.537C81.7031 23.3211 81.616 23.9091 81.6378 24.3012C81.6813 24.6932 81.8773 24.9546 82.2258 25.0852C82.5743 25.2159 83.1079 25.303 83.8267 25.3466L83.696 26C83.0861 25.9564 82.3565 25.9347 81.5071 25.9347C80.6794 25.9129 79.7974 25.902 78.8608 25.902C77.8807 25.902 76.9551 25.9129 76.0839 25.9347C75.2127 25.9347 74.5048 25.9564 73.9603 26L74.091 25.3466C74.8533 25.303 75.4305 25.2159 75.8225 25.0852C76.2363 24.9546 76.563 24.6932 76.8026 24.3012C77.0422 23.9091 77.26 23.3211 77.456 22.537L82.1932 4.92785L68.6351 26.1634H67.9164L65.4334 5.64659L61.121 21.9489C60.9468 22.6459 60.8705 23.2448 60.8923 23.7458C60.9141 24.2467 61.121 24.6279 61.513 24.8892C61.9269 25.1506 62.5912 25.303 63.5059 25.3466L63.3426 26C63.103 25.9782 62.7763 25.9673 62.3625 25.9673C61.9486 25.9456 61.513 25.9347 61.0557 25.9347C60.6201 25.9129 60.2062 25.902 59.8142 25.902C59.2697 25.902 58.7143 25.9129 58.148 25.9347C57.5818 25.9347 57.1135 25.9564 56.7432 26L56.8739 25.3466C57.6362 25.303 58.2352 25.1506 58.6708 24.8892C59.1064 24.6279 59.4548 24.2467 59.7162 23.7458C59.9993 23.2448 60.228 22.6459 60.4023 21.9489L64.5514 6.33266C64.7692 5.5268 64.8563 4.93874 64.8127 4.56848C64.7692 4.17644 64.5731 3.91508 64.2247 3.7844C63.898 3.63194 63.3643 3.54482 62.6238 3.52304L62.7872 2.86964C63.2446 2.89142 63.8217 2.9132 64.5187 2.93498C65.2374 2.95676 65.9779 2.96765 66.7402 2.96765C67.263 2.96765 67.7857 2.95676 68.3084 2.93498C68.8311 2.9132 69.2885 2.89142 69.6805 2.86964L71.5101 20.4461L82.6505 2.96765ZM90.2797 18.8126C91.3034 18.4206 92.2399 18.0176 93.0893 17.6038C93.9605 17.1682 94.6902 16.7108 95.2782 16.2317C96.0841 15.5129 96.7375 14.6744 97.2384 13.7161C97.7394 12.736 97.9898 11.6688 97.9898 10.5144C97.9898 10.0135 97.9463 9.68678 97.8591 9.53432C97.772 9.38186 97.6413 9.30563 97.4671 9.30563C96.9662 9.30563 96.4217 9.54521 95.8336 10.0244C95.2455 10.5035 94.6684 11.1678 94.1021 12.0172C93.5358 12.8449 93.0131 13.7814 92.5339 14.8269C92.0766 15.8723 91.7063 16.9722 91.4232 18.1265C91.14 19.2809 90.9984 20.4243 90.9984 21.5569C90.9984 22.7112 91.2162 23.528 91.6518 24.0071C92.1092 24.4645 92.7082 24.6932 93.4487 24.6932C94.0803 24.6932 94.8317 24.4863 95.7029 24.0725C96.5741 23.6587 97.4344 22.9072 98.2839 21.8182L98.8066 22.0796C98.371 22.7983 97.7938 23.4953 97.0751 24.1705C96.3563 24.8457 95.5287 25.4011 94.5921 25.8366C93.6774 26.2505 92.6646 26.4574 91.5538 26.4574C90.6391 26.4574 89.8114 26.2831 89.0709 25.9347C88.3304 25.5862 87.7532 25.0744 87.3394 24.3992C86.9256 23.7022 86.7187 22.8528 86.7187 21.8509C86.7187 20.7837 86.9038 19.6511 87.2741 18.4532C87.6443 17.2336 88.167 16.0465 88.8422 14.8922C89.5392 13.7379 90.3559 12.6924 91.2925 11.7559C92.2508 10.8193 93.3071 10.0788 94.4615 9.53432C95.6158 8.96804 96.8573 8.6849 98.1858 8.6849C99.057 8.6849 99.7867 8.89181 100.375 9.30563C100.963 9.69767 101.257 10.3075 101.257 11.1352C101.257 11.9846 101.017 12.7795 100.538 13.5201C100.059 14.2606 99.4055 14.9358 98.5779 15.5456C97.772 16.1554 96.879 16.6999 95.8989 17.1791C94.9406 17.6583 93.9714 18.0721 92.9913 18.4206C92.0112 18.769 91.0965 19.0522 90.247 19.27L90.2797 18.8126ZM106.282 24.9546C106.674 24.9546 107.12 24.7259 107.621 24.2685C108.122 23.7893 108.634 23.125 109.157 22.2756C109.679 21.4262 110.18 20.4134 110.66 19.2373C111.139 18.0612 111.553 16.7762 111.901 15.3823L111.215 18.9106C110.583 20.7619 109.908 22.243 109.189 23.3537C108.492 24.4645 107.752 25.2595 106.968 25.7386C106.206 26.2178 105.411 26.4574 104.583 26.4574C103.407 26.4574 102.536 26.098 101.969 25.3793C101.403 24.6387 101.12 23.6587 101.12 22.439C101.12 21.3064 101.305 20.1194 101.675 18.8779C102.046 17.6147 102.557 16.3841 103.211 15.1862C103.886 13.9665 104.648 12.8775 105.498 11.9192C106.347 10.9391 107.251 10.1551 108.209 9.56699C109.168 8.97893 110.126 8.6849 111.084 8.6849C111.825 8.6849 112.391 9.00071 112.783 9.63233C113.175 10.2422 113.273 11.1787 113.077 12.442L112.718 12.638C112.87 11.7232 112.827 11.0045 112.587 10.4818C112.369 9.95903 111.999 9.69767 111.476 9.69767C110.975 9.69767 110.442 9.95903 109.876 10.4818C109.331 11.0045 108.787 11.7123 108.242 12.6053C107.698 13.4983 107.197 14.5111 106.739 15.6436C106.304 16.7762 105.955 17.9523 105.694 19.172C105.432 20.3916 105.302 21.5787 105.302 22.733C105.302 23.5389 105.378 24.116 105.53 24.4645C105.705 24.7912 105.955 24.9546 106.282 24.9546ZM113.633 9.14228C114.417 9.1205 115.146 9.07694 115.821 9.0116C116.518 8.94626 117.183 8.83736 117.814 8.6849L113.6 23.1904C113.513 23.4517 113.447 23.724 113.404 24.0071C113.382 24.2685 113.404 24.4972 113.469 24.6932C113.556 24.8674 113.741 24.9546 114.025 24.9546C114.373 24.9546 114.732 24.7694 115.103 24.3992C115.473 24.0289 115.854 23.2775 116.246 22.1449L116.736 20.6748H117.357L116.54 23.0597C116.235 23.9527 115.854 24.6496 115.397 25.1506C114.939 25.6297 114.449 25.9673 113.927 26.1634C113.426 26.3594 112.925 26.4574 112.424 26.4574C111.378 26.4574 110.638 26.1307 110.202 25.4773C109.919 24.9981 109.81 24.4101 109.876 23.7131C109.941 23.0161 110.082 22.2647 110.3 21.4589L113.633 9.14228ZM122.703 23.2231C122.529 23.8111 122.485 24.2576 122.572 24.5625C122.681 24.8457 122.899 24.9872 123.226 24.9872C123.53 24.9872 123.857 24.8021 124.206 24.4318C124.576 24.0398 124.968 23.2884 125.382 22.1776L125.904 20.7075H126.525L125.708 23.0924C125.404 23.9636 125.022 24.6496 124.565 25.1506C124.108 25.6297 123.618 25.9673 123.095 26.1634C122.572 26.3594 122.038 26.4574 121.494 26.4574C120.797 26.4574 120.242 26.3267 119.828 26.0653C119.414 25.804 119.131 25.4446 118.978 24.9872C118.826 24.5299 118.771 24.0071 118.815 23.4191C118.859 22.8092 118.989 22.1558 119.207 21.4589L124.402 4.20911C124.619 3.46859 124.598 2.92409 124.336 2.57561C124.075 2.22713 123.411 2.05289 122.343 2.05289L122.572 1.36682C123.988 1.34504 125.251 1.22525 126.362 1.00745C127.473 0.76787 128.54 0.441171 129.563 0.0273509L122.703 23.2231ZM158.741 10.4818C158.741 11.9846 158.512 13.4765 158.055 14.9575C157.619 16.4386 156.966 17.8434 156.095 19.172C155.223 20.5006 154.145 21.6767 152.86 22.7003C151.575 23.724 150.094 24.5299 148.417 25.1179C146.762 25.706 144.9 26 142.83 26C142.504 26 142.079 25.9891 141.556 25.9673C141.034 25.9456 140.467 25.9347 139.858 25.9347C139.269 25.9129 138.66 25.902 138.028 25.902C137.527 25.902 136.983 25.9129 136.394 25.9347C135.806 25.9347 135.251 25.9456 134.728 25.9673C134.227 25.9673 133.803 25.9782 133.454 26L133.552 25.3466C134.249 25.303 134.794 25.2159 135.186 25.0852C135.6 24.9546 135.926 24.6932 136.166 24.3012C136.405 23.9091 136.623 23.3211 136.819 22.537L141.099 6.33266C141.273 5.67926 141.349 5.15654 141.328 4.7645C141.328 4.35068 141.164 4.04576 140.838 3.84974C140.533 3.65372 139.988 3.54482 139.204 3.52304L139.302 2.86964C139.672 2.89142 140.13 2.9132 140.674 2.93498C141.219 2.95676 141.796 2.96765 142.406 2.96765C143.037 2.96765 143.636 2.96765 144.203 2.96765C144.616 2.94587 145.128 2.93498 145.738 2.93498C146.348 2.9132 146.958 2.90231 147.568 2.90231C148.177 2.88053 148.689 2.86964 149.103 2.86964C152.239 2.86964 154.624 3.51215 156.258 4.79717C157.913 6.08219 158.741 7.97705 158.741 10.4818ZM142.7 25.4119C144.203 25.4119 145.553 25.1179 146.751 24.5299C147.971 23.9418 149.038 23.125 149.953 22.0796C150.889 21.0342 151.662 19.8363 152.272 18.4859C152.904 17.1355 153.372 15.6981 153.677 14.1735C154.004 12.6271 154.167 11.0807 154.167 9.53432C154.167 7.53056 153.71 6.01685 152.795 4.99319C151.88 3.96953 150.388 3.4577 148.319 3.4577C147.731 3.4577 147.274 3.53393 146.947 3.68639C146.62 3.81707 146.359 4.08932 146.163 4.50314C145.967 4.89518 145.771 5.48324 145.575 6.26732L141.295 22.6023C141.099 23.2775 140.979 23.822 140.936 24.2358C140.914 24.6496 141.034 24.9546 141.295 25.1506C141.556 25.3248 142.025 25.4119 142.7 25.4119ZM172.972 2.90231C175.368 2.90231 177.111 3.29435 178.2 4.07843C179.289 4.84073 179.833 5.87528 179.833 7.18208C179.833 8.31464 179.474 9.3383 178.755 10.2531C178.058 11.1678 177.1 11.941 175.88 12.5726C174.66 13.1825 173.277 13.6072 171.731 13.8468C174.04 14.021 175.727 14.5873 176.795 15.5456C177.884 16.5039 178.428 17.6474 178.428 18.976C178.428 20.1521 178.145 21.1757 177.579 22.0469C177.034 22.9181 176.283 23.6478 175.325 24.2358C174.388 24.8239 173.288 25.2704 172.025 25.5753C170.762 25.8584 169.422 26 168.006 26C167.266 26 166.449 25.9891 165.556 25.9673C164.685 25.9238 163.607 25.902 162.322 25.902C161.777 25.902 161.211 25.9129 160.623 25.9347C160.035 25.9347 159.48 25.9456 158.957 25.9673C158.434 25.9673 157.988 25.9782 157.617 26L157.748 25.3466C158.489 25.303 159.066 25.2159 159.48 25.0852C159.893 24.9546 160.22 24.6932 160.46 24.3012C160.699 23.9091 160.917 23.3211 161.113 22.537L165.426 6.33266C165.578 5.67926 165.665 5.15654 165.687 4.7645C165.709 4.35068 165.556 4.04576 165.23 3.84974C164.925 3.63194 164.347 3.52304 163.498 3.52304L163.661 2.86964C164.032 2.89142 164.467 2.9132 164.968 2.93498C165.491 2.93498 166.046 2.94587 166.634 2.96765C167.222 2.96765 167.767 2.96765 168.268 2.96765C169.204 2.96765 170.032 2.95676 170.751 2.93498C171.491 2.9132 172.232 2.90231 172.972 2.90231ZM166.863 14.2715L166.994 13.7161H169.411C170.653 13.7161 171.709 13.4003 172.58 12.7686C173.473 12.1152 174.148 11.2658 174.606 10.2204C175.085 9.17495 175.325 8.07506 175.325 6.92072C175.325 5.83172 175.107 4.99319 174.671 4.40513C174.257 3.81707 173.528 3.52304 172.482 3.52304C171.72 3.52304 171.175 3.6755 170.849 3.98042C170.522 4.26356 170.239 4.88429 169.999 5.84261L165.589 22.537C165.458 23.0815 165.371 23.5606 165.328 23.9745C165.306 24.3883 165.415 24.7041 165.654 24.9219C165.894 25.1397 166.34 25.2486 166.994 25.2486C168.54 25.2486 169.803 24.9546 170.783 24.3665C171.764 23.7784 172.493 22.9726 172.972 21.9489C173.451 20.9035 173.691 19.7274 173.691 18.4206C173.691 17.6147 173.549 16.9068 173.266 16.297C173.005 15.6654 172.58 15.1753 171.992 14.8269C171.404 14.4566 170.62 14.2715 169.64 14.2715H166.863Z" fill="white"/>
</svg>
